PathFileType	4	(X/Y/Z)	HSS_walk1.trc
DataRate	CameraRate	NumFrames	NumMarkers	Units	OrigDataRate	OrigDataStartFrame	OrigNumFrames
120.0	120.0	7	44	mm	120.0	631	1008
Frame#	Time		R.Shoulder		Offset		L.Shoulder		R.Elbow		R.Wrist.Radial		R.Wrist		R.Hand		L.Elbow		L.Wrist.Radial		L.Wrist		L.Hand		R.Hip		V.Sacral		L.PSIS		L.Hip		R.Thigh.Upper		R.Thigh.Front		R.Thigh.Rear		X.Shell.Lower.Thigh.Right		R.Knee.Lateral		R.Shank.Upper		R.Shank.Front		R.Shank.Rear		X.Shell.Lower.Shank.Right		R.Ankle.Lateral		R.Heel		R.Toe		L.Thigh.Upper		L.Thigh.Front		L.Thigh.Rear		X.Shell.Lower.Thigh.Left		L.Knee.Lateral		L.Shank.Upper		L.Shank.Front		L.Shank.Rear		X.Shell.Lower.Shank.Left		L.Ankle.Lateral		L.Heel		L.Toe		R.Troc		L.Troc		R.PSIS		L.ASIS		R.ASIS
			X1	Y1	Z1	X2	Y2	Z2	X3	Y3	Z3	X4	Y4	Z4	X5	Y5	Z5	X6	Y6	Z6	X7	Y7	Z7	X8	Y8	Z8	X9	Y9	Z9	X10	Y10	Z10	X11	Y11	Z11	X12	Y12	Z12	X13	Y13	Z13	X14	Y14	Z14	X15	Y15	Z15	X16	Y16	Z16	X17	Y17	Z17	X18	Y18	Z18	X19	Y19	Z19	X20	Y20	Z20	X21	Y21	Z21	X22	Y22	Z22	X23	Y23	Z23	X24	Y24	Z24	X25	Y25	Z25	X26	Y26	Z26	X27	Y27	Z27	X28	Y28	Z28	X29	Y29	Z29	X30	Y30	Z30	X31	Y31	Z31	X32	Y32	Z32	X33	Y33	Z33	X34	Y34	Z34	X35	Y35	Z35	X36	Y36	Z36	X37	Y37	Z37	X38	Y38	Z38	X39	Y39	Z39	X40	Y40	Z40	X41	Y41	Z41	X42	Y42	Z42	X43	Y43	Z43	X44	Y44	Z44

631	5.25000	-179.34984	1445.05029	-44.93965	-279.14651	1372.24121	-345.60342	-133.83275	1455.34973	-410.95700	-318.86285	1111.25732	-13.88300	-277.86484	859.87726	21.80636	-327.85486	875.43988	74.96776	-314.54016	788.18561	79.86288	-37.49621	1101.34534	-477.00119	205.51804	1032.78528	-405.56442	189.96451	1003.18378	-469.96667	271.06461	985.80298	-445.16541	-139.17534	1006.75323	-71.70360	-262.74536	983.54291	-213.55742	-263.28735	991.92352	-255.48520	-150.94495	1004.86792	-370.15182	2.54331	684.58356	-56.63910	42.56657	661.11951	-81.60325	-2.73023	640.80182	-44.47416	29.85701	619.41980	-69.60702	12.76635	503.46030	-80.48399	56.27406	365.84274	-37.57987	96.10393	336.26651	-64.64365	39.60740	320.13519	-48.79312	75.27219	291.88272	-61.52077	149.90558	80.90744	-117.81664	118.71607	33.32085	-169.45020	303.26984	94.98624	-137.81949	-124.62197	662.50665	-376.07568	-109.71763	612.81750	-351.94205	-159.86932	629.89020	-386.79599	-138.09520	593.16571	-373.33966	-220.67278	482.89813	-346.96448	-313.09793	295.69736	-377.67538	-295.34262	265.29108	-357.38925	-355.61813	269.96533	-364.21606	-343.50381	233.08827	-362.98306	-388.41010	76.87131	-304.98624	-452.05231	49.77342	-256.76004	-251.94600	30.94253	-294.46664	-95.33509	854.47491	-41.64713	-152.21033	866.58514	-406.80399	-261.34778	987.57495	-169.59703	-81.13153	971.06464	-334.26791	-76.62649	972.71960	-111.34267
632	5.25833	-169.97447	1443.32361	-43.24828	-270.22452	1371.52258	-343.77103	-125.19864	1454.81067	-409.42120	-309.39023	1109.83252	-13.03698	-270.56549	858.32263	22.43269	-320.32330	874.08203	75.72980	-307.72882	786.91559	80.37364	-28.13380	1100.94214	-475.59290	215.35899	1033.83362	-404.53336	199.83961	1004.03265	-468.85541	281.10580	987.43652	-444.09106	-129.26392	1005.70050	-71.19543	-253.27513	982.45984	-212.79430	-254.06163	990.64569	-254.54533	-142.22986	1003.55090	-369.69418	13.27628	684.48138	-56.73643	53.39642	661.13922	-81.68333	8.08575	640.59430	-44.93072	40.64562	619.36108	-69.81051	23.33899	502.96906	-80.39083	65.84528	364.74017	-37.73970	105.37437	334.63528	-64.75709	48.58346	319.22076	-48.91644	83.98132	290.62109	-61.55407	155.63524	78.80592	-117.72646	124.19136	31.43270	-169.51831	309.13297	91.43879	-137.07977	-117.25571	661.20502	-375.64368	-102.33228	611.47333	-351.72122	-152.54005	628.64185	-386.44818	-130.85309	591.83899	-372.73355	-213.74786	481.88840	-346.49112	-308.68628	295.96851	-377.32812	-291.29044	265.45370	-357.07254	-351.54257	270.92935	-363.94107	-340.11176	233.88289	-362.83032	-387.59238	78.28512	-305.19821	-451.75360	52.15690	-257.20508	-251.77965	30.93046	-294.51572	-85.11396	854.37469	-41.44947	-144.25256	865.24011	-406.19528	-251.62923	986.60681	-168.67967	-72.37420	969.73932	-334.26907	-66.88868	971.80371	-111.06844
633	5.26667	-160.19966	1441.83716	-41.82661	-261.27310	1370.94250	-341.84912	-116.52687	1454.43652	-407.86368	-299.65652	1108.43884	-12.14545	-262.51324	856.60919	23.35695	-312.15417	872.83380	76.50758	-300.31946	785.51801	80.96233	-19.28760	1100.39551	-474.12680	224.92166	1034.78369	-403.63602	209.14471	1004.67517	-467.72006	290.62283	988.66046	-443.24008	-119.41980	1004.80304	-70.79901	-243.97893	981.47748	-211.57243	-244.84943	989.61444	-253.41518	-133.56931	1002.37830	-369.22195	24.06647	684.36139	-56.85981	64.27583	661.18872	-81.85812	18.88120	640.54297	-44.96220	51.64304	619.33295	-69.81531	34.21089	502.47031	-80.48257	75.16371	363.63013	-37.87896	114.09370	332.98935	-65.05443	57.28534	318.29330	-49.09900	92.15397	289.21750	-61.71672	160.09743	76.23793	-117.71888	128.02721	29.11379	-169.55788	313.56696	86.90647	-136.16225	-109.77113	660.00201	-375.21393	-94.92461	610.17023	-350.97470	-144.92229	627.36304	-385.57843	-122.80010	590.55988	-371.64539	-206.60957	480.87567	-345.89136	-304.10880	296.43658	-376.81900	-287.33682	265.63135	-356.72910	-347.45190	272.01212	-363.75156	-336.53915	234.90335	-362.58521	-386.50659	79.89513	-305.21487	-451.12430	55.02880	-257.26993	-252.20047	30.10503	-294.42023	-74.86246	854.39728	-41.31218	-136.14134	864.10284	-405.32889	-242.05917	985.68671	-167.79634	-63.63379	968.52643	-334.11664	-56.80835	970.91266	-110.78919
634	5.27500	-150.45859	1440.40027	-40.01594	-252.12376	1370.45825	-339.78458	-107.72070	1454.20508	-405.98712	-289.63361	1107.00977	-11.41861	-254.20433	855.13177	23.89453	-303.46255	871.60162	77.25367	-292.26013	783.99622	81.49806	-10.59863	1099.97717	-472.33807	233.67567	1035.21936	-402.72217	217.89012	1004.80078	-466.47354	299.56061	989.36060	-442.58954	-109.43224	1004.03119	-70.22694	-234.25661	980.65826	-210.58704	-235.26721	988.70917	-252.50447	-124.62853	1001.29236	-368.51624	34.95125	684.23083	-56.68684	75.18530	661.20874	-81.63279	29.92353	640.35754	-44.99276	62.54876	619.27081	-69.81760	44.99130	502.00873	-80.27431	84.09951	362.39917	-38.22878	122.57722	331.07968	-65.46959	65.40936	317.46103	-49.11096	99.76357	287.62646	-61.89583	163.16145	73.56351	-117.56461	130.29573	26.68142	-169.51732	316.31906	81.83592	-134.86482	-101.83006	658.81073	-374.49103	-87.17072	609.00677	-350.39719	-136.77379	626.17133	-383.36707	-114.74936	589.50311	-371.22760	-198.98807	480.05374	-345.35370	-299.36264	297.21765	-376.45139	-283.19962	266.06604	-356.27997	-343.03015	273.44351	-363.45926	-332.81320	236.10493	-362.24866	-385.58426	81.98501	-305.48361	-450.45804	58.10414	-257.37927	-252.00354	30.07636	-294.41959	-64.65295	854.34601	-41.36316	-127.79939	862.91162	-404.59183	-232.22044	985.04089	-166.91429	-54.59460	967.38770	-333.95758	-46.75499	970.12811	-110.40909
635	5.28333	-140.71129	1439.10815	-38.03593	-242.88828	1370.06409	-337.84387	-98.75731	1454.16638	-404.07718	-279.27872	1105.70996	-10.45706	-245.29407	853.58484	24.27522	-294.20242	870.34766	78.05227	-283.85770	782.74518	82.23235	-2.58717	1099.60010	-470.64047	242.23608	1035.36047	-401.63763	226.31027	1004.83624	-465.60034	308.00867	989.65936	-442.00479	-99.36631	1003.18207	-69.81332	-224.44969	980.11011	-209.52011	-225.58582	987.89520	-251.39265	-115.48618	1000.34473	-367.90735	45.77858	684.22107	-56.28475	86.03545	661.21747	-81.18145	40.59057	640.21472	-44.61762	73.42975	619.30792	-69.62339	55.80392	501.65485	-80.27103	92.77570	361.15915	-38.50284	130.45326	328.98685	-65.94256	73.13950	316.51895	-49.52359	106.71777	285.98602	-62.11671	165.17357	70.54288	-117.82697	131.11557	24.86705	-169.45822	318.19028	76.23820	-133.66376	-93.67229	657.80566	-373.92752	-79.01913	607.98053	-349.76294	-128.73744	625.26093	-382.75183	-106.96798	588.27448	-370.27875	-190.98090	479.15814	-344.77499	-294.31973	298.04971	-376.07321	-278.80707	266.65906	-356.15891	-338.46487	275.07907	-363.12457	-328.80722	237.53410	-361.94754	-384.23193	84.20646	-305.44501	-449.69223	61.59240	-257.31778	-251.99724	29.93295	-294.50671	-54.37850	854.27704	-41.25398	-119.26013	861.82947	-403.79773	-222.25424	984.51648	-165.92957	-45.43436	966.28687	-333.70572	-36.56079	969.55103	-109.92088
636	5.29167	-130.82712	1437.94861	-36.04401	-233.67401	1369.68921	-335.67096	-89.80784	1454.37390	-401.97739	-268.63760	1104.37793	-9.59418	-235.82411	852.22748	24.84524	-284.31265	869.10553	78.88369	-274.45151	781.41254	82.54260	5.24189	1099.27197	-469.13773	250.25256	1035.15259	-400.87839	233.99049	1004.44989	-464.47690	315.90732	989.58148	-441.49561	-89.08463	1002.47168	-69.32726	-214.45488	979.58728	-208.46196	-215.72777	987.20380	-250.45602	-106.09704	999.60443	-367.25363	56.40915	684.00598	-55.51603	96.92079	661.15045	-80.23553	51.04026	640.02008	-44.31729	84.08983	619.14783	-69.02385	66.24255	501.25851	-80.34290	100.94714	359.77914	-38.90506	137.66666	326.68228	-66.34866	80.23265	315.58200	-49.82780	113.16236	284.35367	-62.50466	166.14253	67.81773	-117.96181	130.98720	23.34808	-169.59456	319.06564	70.24160	-132.38525	-85.24514	656.79993	-373.28391	-70.44515	606.95496	-349.22330	-120.17404	624.27161	-382.16605	-98.54195	587.36938	-369.69168	-182.86407	478.44196	-344.48871	-289.17331	299.03864	-375.74219	-274.22070	267.34555	-355.80762	-333.66748	276.75653	-362.71967	-324.92886	239.24991	-361.74152	-382.75317	86.73614	-305.65137	-448.59836	65.47113	-257.41809	-251.64844	30.07657	-294.56689	-43.95953	854.09723	-41.13538	-110.49178	861.00104	-403.51376	-212.00620	983.99506	-164.92990	-35.93024	965.27020	-333.41306	-26.29128	969.02936	-109.36837
637	5.30000	-120.92563	1436.92236	-33.78760	-224.26643	1369.33643	-333.56531	-80.85128	1454.61743	-399.80975	-257.58557	1102.98608	-8.61218	-225.85133	850.76746	25.30196	-273.90353	867.77222	79.50963	-264.69269	779.94403	83.01694	12.44702	1099.01855	-467.43671	257.88644	1034.73792	-400.05838	241.23149	1003.79510	-463.02621	323.27661	988.84711	-440.82794	-78.58901	1002.04828	-68.83321	-204.31776	979.33917	-207.43382	-205.83731	986.71521	-249.43597	-96.35463	998.70520	-366.49707	66.94061	683.97369	-54.54182	107.55214	661.01740	-79.00788	61.19923	639.73334	-43.84404	94.35236	618.93921	-68.29787	76.46563	500.95181	-79.97563	108.19567	358.22772	-39.30425	144.22061	324.49368	-66.96040	86.53913	314.61331	-50.15398	118.69209	282.58911	-63.20425	167.83414	66.24976	-119.61689	132.28764	24.61447	-171.50342	321.24719	61.74247	-130.01012	-76.33376	655.94781	-372.74118	-61.49286	606.03082	-349.07220	-111.48316	623.38599	-381.36932	-89.70867	586.42346	-369.02307	-174.08186	477.65475	-343.98965	-283.58261	300.35892	-375.40225	-269.04626	268.01852	-355.19012	-328.56973	278.90363	-362.49875	-320.41620	241.09326	-361.47162	-381.21469	89.52599	-305.68668	-447.36639	69.73062	-257.32968	-251.51317	30.06523	-294.59763	-33.47773	853.84711	-40.67056	-101.38320	860.01862	-402.64438	-201.89609	983.77740	-163.87422	-26.29943	964.41016	-332.87122	-15.80337	968.53448	-108.77962
